<mxfile host="app.diagrams.net" agent="Mozilla/5.0 (Windows NT 10.0; Win64; x64) AppleWebKit/537.36 (KHTML, like Gecko) Chrome/134.0.0.0 Safari/537.36" version="26.1.1">
  <diagram name="Page-1" id="hsNGI94q7CqUFRBLW2Yu">
    <mxGraphModel grid="1" page="1" gridSize="10" guides="1" tooltips="1" connect="1" arrows="1" fold="1" pageScale="1" pageWidth="827" pageHeight="1169" math="0" shadow="0">
      <root>
        <mxCell id="0" />
        <mxCell id="1" parent="0" />
        <mxCell id="BT5A8Gep5r_XNG4p2EnS-1" value="Huseier" style="shape=umlActor;verticalLabelPosition=bottom;verticalAlign=top;html=1;outlineConnect=0;" vertex="1" parent="1">
          <mxGeometry x="120" y="270" width="30" height="60" as="geometry" />
        </mxCell>
        <mxCell id="BT5A8Gep5r_XNG4p2EnS-2" value="Velg språk" style="ellipse;whiteSpace=wrap;html=1;" vertex="1" parent="1">
          <mxGeometry x="310" y="120" width="120" height="80" as="geometry" />
        </mxCell>
        <mxCell id="BT5A8Gep5r_XNG4p2EnS-4" value="WeatherAPI" style="shape=umlActor;verticalLabelPosition=bottom;verticalAlign=top;html=1;outlineConnect=0;" vertex="1" parent="1">
          <mxGeometry x="642.88" y="260" width="30" height="60" as="geometry" />
        </mxCell>
        <mxCell id="BT5A8Gep5r_XNG4p2EnS-7" value="" style="endArrow=none;html=1;rounded=0;exitX=0.5;exitY=0.5;exitDx=0;exitDy=0;exitPerimeter=0;entryX=0;entryY=0.5;entryDx=0;entryDy=0;" edge="1" parent="1" source="BT5A8Gep5r_XNG4p2EnS-1" target="BT5A8Gep5r_XNG4p2EnS-2">
          <mxGeometry width="50" height="50" relative="1" as="geometry">
            <mxPoint x="390" y="-10" as="sourcePoint" />
            <mxPoint x="440" y="-60" as="targetPoint" />
          </mxGeometry>
        </mxCell>
        <mxCell id="BT5A8Gep5r_XNG4p2EnS-9" value="Hent Vær data" style="ellipse;whiteSpace=wrap;html=1;" vertex="1" parent="1">
          <mxGeometry x="310" y="260" width="120" height="80" as="geometry" />
        </mxCell>
        <mxCell id="BT5A8Gep5r_XNG4p2EnS-10" value="" style="endArrow=none;html=1;rounded=0;entryX=0.5;entryY=0.5;entryDx=0;entryDy=0;entryPerimeter=0;exitX=1;exitY=0.5;exitDx=0;exitDy=0;" edge="1" parent="1" source="BT5A8Gep5r_XNG4p2EnS-9" target="BT5A8Gep5r_XNG4p2EnS-4">
          <mxGeometry width="50" height="50" relative="1" as="geometry">
            <mxPoint x="390" y="190" as="sourcePoint" />
            <mxPoint x="440" y="140" as="targetPoint" />
            <Array as="points" />
          </mxGeometry>
        </mxCell>
        <mxCell id="BT5A8Gep5r_XNG4p2EnS-12" value="" style="endArrow=none;html=1;rounded=0;exitX=0.5;exitY=0.5;exitDx=0;exitDy=0;exitPerimeter=0;entryX=0;entryY=0.5;entryDx=0;entryDy=0;" edge="1" parent="1" source="BT5A8Gep5r_XNG4p2EnS-1" target="BT5A8Gep5r_XNG4p2EnS-9">
          <mxGeometry width="50" height="50" relative="1" as="geometry">
            <mxPoint x="145" y="170" as="sourcePoint" />
            <mxPoint x="320" y="170" as="targetPoint" />
          </mxGeometry>
        </mxCell>
        <mxCell id="BT5A8Gep5r_XNG4p2EnS-14" value="Søk addresse" style="ellipse;whiteSpace=wrap;html=1;" vertex="1" parent="1">
          <mxGeometry x="460" y="380" width="120" height="80" as="geometry" />
        </mxCell>
        <mxCell id="BT5A8Gep5r_XNG4p2EnS-15" value="MapAPI&lt;div&gt;&lt;br&gt;&lt;/div&gt;" style="shape=umlActor;verticalLabelPosition=bottom;verticalAlign=top;html=1;outlineConnect=0;" vertex="1" parent="1">
          <mxGeometry x="660" y="400" width="30" height="60" as="geometry" />
        </mxCell>
        <mxCell id="BT5A8Gep5r_XNG4p2EnS-16" value="" style="endArrow=none;html=1;rounded=0;exitX=0.5;exitY=0.5;exitDx=0;exitDy=0;exitPerimeter=0;entryX=0;entryY=0.5;entryDx=0;entryDy=0;" edge="1" parent="1" source="BT5A8Gep5r_XNG4p2EnS-1" target="BT5A8Gep5r_XNG4p2EnS-14">
          <mxGeometry width="50" height="50" relative="1" as="geometry">
            <mxPoint x="145" y="310" as="sourcePoint" />
            <mxPoint x="320" y="310" as="targetPoint" />
          </mxGeometry>
        </mxCell>
        <mxCell id="BT5A8Gep5r_XNG4p2EnS-17" value="" style="endArrow=none;html=1;rounded=0;exitX=1;exitY=0.5;exitDx=0;exitDy=0;entryX=0.5;entryY=0.5;entryDx=0;entryDy=0;entryPerimeter=0;" edge="1" parent="1" source="BT5A8Gep5r_XNG4p2EnS-14" target="BT5A8Gep5r_XNG4p2EnS-15">
          <mxGeometry width="50" height="50" relative="1" as="geometry">
            <mxPoint x="460" y="420" as="sourcePoint" />
            <mxPoint x="635" y="420" as="targetPoint" />
          </mxGeometry>
        </mxCell>
        <mxCell id="BT5A8Gep5r_XNG4p2EnS-18" value="" style="endArrow=none;html=1;rounded=0;exitX=1;exitY=0.5;exitDx=0;exitDy=0;entryX=0.5;entryY=0.5;entryDx=0;entryDy=0;entryPerimeter=0;" edge="1" parent="1" source="BT5A8Gep5r_XNG4p2EnS-14" target="BT5A8Gep5r_XNG4p2EnS-4">
          <mxGeometry width="50" height="50" relative="1" as="geometry">
            <mxPoint x="465" y="330" as="sourcePoint" />
            <mxPoint x="640" y="330" as="targetPoint" />
          </mxGeometry>
        </mxCell>
        <mxCell id="BT5A8Gep5r_XNG4p2EnS-19" value="Hent gjennomsnitt data" style="ellipse;whiteSpace=wrap;html=1;" vertex="1" parent="1">
          <mxGeometry x="522.88" y="140" width="120" height="80" as="geometry" />
        </mxCell>
        <mxCell id="BT5A8Gep5r_XNG4p2EnS-23" value="" style="endArrow=block;dashed=1;endFill=0;endSize=12;html=1;rounded=0;entryX=0.059;entryY=0.75;entryDx=0;entryDy=0;entryPerimeter=0;" edge="1" parent="1" source="BT5A8Gep5r_XNG4p2EnS-9" target="BT5A8Gep5r_XNG4p2EnS-19">
          <mxGeometry width="160" relative="1" as="geometry">
            <mxPoint x="405" y="268" as="sourcePoint" />
            <mxPoint x="540" y="201" as="targetPoint" />
          </mxGeometry>
        </mxCell>
        <mxCell id="BT5A8Gep5r_XNG4p2EnS-21" value="&amp;lt;&amp;lt; Include &amp;gt;&amp;gt;" style="text;strokeColor=none;align=center;fillColor=none;html=1;verticalAlign=middle;whiteSpace=wrap;rounded=0;rotation=326;direction=west;" vertex="1" parent="1">
          <mxGeometry x="390" y="220" width="160" height="18.11" as="geometry" />
        </mxCell>
        <mxCell id="BT5A8Gep5r_XNG4p2EnS-24" value="" style="endArrow=none;html=1;rounded=0;entryX=0.5;entryY=0;entryDx=0;entryDy=0;entryPerimeter=0;exitX=0.5;exitY=1;exitDx=0;exitDy=0;" edge="1" parent="1" source="BT5A8Gep5r_XNG4p2EnS-19" target="BT5A8Gep5r_XNG4p2EnS-4">
          <mxGeometry width="50" height="50" relative="1" as="geometry">
            <mxPoint x="440" y="310" as="sourcePoint" />
            <mxPoint x="615" y="300" as="targetPoint" />
            <Array as="points" />
          </mxGeometry>
        </mxCell>
        <mxCell id="BT5A8Gep5r_XNG4p2EnS-25" value="HvaKosterStrømmenAPI" style="shape=umlActor;verticalLabelPosition=bottom;verticalAlign=top;html=1;outlineConnect=0;" vertex="1" parent="1">
          <mxGeometry x="500" y="480" width="30" height="60" as="geometry" />
        </mxCell>
        <mxCell id="BT5A8Gep5r_XNG4p2EnS-28" value="Strøm Pris" style="ellipse;whiteSpace=wrap;html=1;" vertex="1" parent="1">
          <mxGeometry x="260" y="505" width="120" height="80" as="geometry" />
        </mxCell>
        <mxCell id="9Ci4JAs-eoWheaKm7Xmt-1" value="" style="endArrow=none;html=1;rounded=0;exitX=0.5;exitY=0.5;exitDx=0;exitDy=0;exitPerimeter=0;entryX=0.5;entryY=0;entryDx=0;entryDy=0;" edge="1" parent="1" source="BT5A8Gep5r_XNG4p2EnS-1" target="BT5A8Gep5r_XNG4p2EnS-28">
          <mxGeometry width="50" height="50" relative="1" as="geometry">
            <mxPoint x="100" y="400" as="sourcePoint" />
            <mxPoint x="275" y="530" as="targetPoint" />
          </mxGeometry>
        </mxCell>
        <mxCell id="9Ci4JAs-eoWheaKm7Xmt-2" value="" style="endArrow=none;html=1;rounded=0;exitX=1;exitY=0.5;exitDx=0;exitDy=0;entryX=0.5;entryY=0.5;entryDx=0;entryDy=0;entryPerimeter=0;" edge="1" parent="1" source="BT5A8Gep5r_XNG4p2EnS-28" target="BT5A8Gep5r_XNG4p2EnS-25">
          <mxGeometry width="50" height="50" relative="1" as="geometry">
            <mxPoint x="350" y="400" as="sourcePoint" />
            <mxPoint x="525" y="530" as="targetPoint" />
          </mxGeometry>
        </mxCell>
        <mxCell id="9Ci4JAs-eoWheaKm7Xmt-5" value="" style="endArrow=block;dashed=1;endFill=0;endSize=12;html=1;rounded=0;entryX=0.428;entryY=1.025;entryDx=0;entryDy=0;entryPerimeter=0;" edge="1" parent="1">
          <mxGeometry width="160" relative="1" as="geometry">
            <mxPoint x="320" y="500" as="sourcePoint" />
            <mxPoint x="369.9999999999999" y="340" as="targetPoint" />
          </mxGeometry>
        </mxCell>
        <mxCell id="9Ci4JAs-eoWheaKm7Xmt-6" value="&amp;lt;&amp;lt; extend &amp;gt;&amp;gt;" style="text;html=1;align=center;verticalAlign=middle;resizable=0;points=[];autosize=1;strokeColor=none;fillColor=none;rotation=289;" vertex="1" parent="1">
          <mxGeometry x="280" y="430" width="90" height="30" as="geometry" />
        </mxCell>
        <mxCell id="9Ci4JAs-eoWheaKm7Xmt-7" value="" style="endArrow=block;dashed=1;endFill=0;endSize=12;html=1;rounded=0;exitX=0.5;exitY=0;exitDx=0;exitDy=0;" edge="1" parent="1" source="BT5A8Gep5r_XNG4p2EnS-14" target="BT5A8Gep5r_XNG4p2EnS-9">
          <mxGeometry width="160" relative="1" as="geometry">
            <mxPoint x="424" y="283" as="sourcePoint" />
            <mxPoint x="540" y="210" as="targetPoint" />
          </mxGeometry>
        </mxCell>
        <mxCell id="9Ci4JAs-eoWheaKm7Xmt-8" value="&amp;lt;&amp;lt; Include &amp;gt;&amp;gt;" style="text;strokeColor=none;align=center;fillColor=none;html=1;verticalAlign=middle;whiteSpace=wrap;rounded=0;rotation=24;direction=west;" vertex="1" parent="1">
          <mxGeometry x="426" y="350" width="124" height="1.89" as="geometry" />
        </mxCell>
        <mxCell id="9Ci4JAs-eoWheaKm7Xmt-9" value="StrømSelskap" style="shape=umlActor;verticalLabelPosition=bottom;verticalAlign=top;html=1;outlineConnect=0;" vertex="1" parent="1">
          <mxGeometry x="120" y="445" width="30" height="60" as="geometry" />
        </mxCell>
        <mxCell id="9Ci4JAs-eoWheaKm7Xmt-12" value="" style="endArrow=none;html=1;rounded=0;exitX=0.5;exitY=0.5;exitDx=0;exitDy=0;exitPerimeter=0;entryX=0;entryY=0;entryDx=0;entryDy=0;" edge="1" parent="1" source="9Ci4JAs-eoWheaKm7Xmt-9" target="BT5A8Gep5r_XNG4p2EnS-28">
          <mxGeometry width="50" height="50" relative="1" as="geometry">
            <mxPoint x="145" y="310" as="sourcePoint" />
            <mxPoint x="330" y="515" as="targetPoint" />
          </mxGeometry>
        </mxCell>
        <mxCell id="9Ci4JAs-eoWheaKm7Xmt-13" value="" style="endArrow=none;html=1;rounded=0;exitX=0.5;exitY=0.5;exitDx=0;exitDy=0;exitPerimeter=0;entryX=0.5;entryY=0;entryDx=0;entryDy=0;entryPerimeter=0;" edge="1" parent="1" source="BT5A8Gep5r_XNG4p2EnS-1" target="9Ci4JAs-eoWheaKm7Xmt-9">
          <mxGeometry width="50" height="50" relative="1" as="geometry">
            <mxPoint x="145" y="485" as="sourcePoint" />
            <mxPoint x="135" y="450" as="targetPoint" />
          </mxGeometry>
        </mxCell>
      </root>
    </mxGraphModel>
  </diagram>
</mxfile>
